ply
format ascii 1.0
comment Created by Blender 3.3.0 - www.blender.org
element vertex 286
property float x
property float y
property float z
property float nx
property float ny
property float nz
element face 560
property list uchar uint vertex_indices
end_header
-1.006963 0.159356 0.448664 -0.894949 -0.327421 0.303088
-1.056976 0.312290 0.282639 -1.000000 0.000000 0.000000
-1.030875 0.151140 0.282639 -0.941431 -0.337205 0.000000
-0.892548 0.081956 0.566065 -0.290610 -0.257714 0.921482
-0.936340 0.035146 0.438420 -0.695966 -0.656181 0.291648
-0.936340 0.168792 0.583505 -0.197295 -0.192009 0.961357
-1.030875 0.312290 0.457582 -0.948895 0.000000 0.315591
-0.952919 0.017425 0.282639 -0.727000 -0.686638 0.000000
-0.297150 0.312290 0.282639 1.000000 0.000000 0.000000
-0.347163 0.159356 0.448664 0.890258 -0.333692 0.309985
-0.323251 0.151140 0.282639 0.941431 -0.337205 0.000000
-0.323251 0.312290 0.457582 0.948896 0.000000 0.315590
-0.417786 0.168792 0.583505 0.209312 -0.211155 0.954779
-0.472365 0.081956 0.566065 0.261114 -0.216298 0.940763
-0.417786 0.035146 0.438420 0.692829 -0.650075 0.312074
-0.401207 0.017425 0.282639 0.727000 -0.686638 0.000000
-0.566649 0.194267 0.450525 -0.264026 0.244242 0.933079
-0.677063 0.312290 0.465114 0.000000 0.000000 1.000000
-0.677063 0.151140 0.457500 -0.000000 0.415228 0.909718
-0.787477 0.194267 0.450525 0.261109 0.241687 0.934564
-0.542816 0.035146 0.583505 0.237766 -0.199344 0.950647
-0.526302 0.312290 0.457500 -0.425499 -0.000000 0.904959
-0.827824 0.312290 0.457500 0.425499 -0.000000 0.904959
-0.811310 0.035146 0.583505 -0.214638 -0.197021 0.956616
-0.677063 0.017425 0.602744 -0.000000 -0.162804 0.986658
-0.677063 -0.093802 0.282639 -0.000000 -1.000000 0.000000
-0.820138 -0.040343 0.448664 -0.362163 -0.877152 0.315345
-0.827824 -0.065902 0.282639 -0.374114 -0.927383 0.000000
-0.533988 -0.040343 0.448664 0.366291 -0.873703 0.320116
-0.677063 -0.065902 0.457582 0.000000 -0.942916 0.333031
-0.526302 -0.065902 0.282639 0.374114 -0.927383 0.000000
1.006963 0.159356 0.448664 0.894949 -0.327420 0.303088
1.056976 0.312290 0.282639 1.000000 0.000000 -0.000000
1.030875 0.312290 0.457582 0.948895 0.000000 0.315591
0.892548 0.081956 0.566065 0.290610 -0.257714 0.921482
0.936340 0.168792 0.583505 0.197295 -0.192009 0.961357
0.952919 0.312290 0.602744 0.155107 0.000000 0.987898
0.936340 0.035146 0.438420 0.695966 -0.656181 0.291648
1.030875 0.151140 0.282639 0.941431 -0.337205 0.000000
0.347163 0.159356 0.448664 -0.890258 -0.333692 0.309985
0.297150 0.312290 0.282639 -1.000000 0.000000 -0.000000
0.323251 0.151140 0.282639 -0.941431 -0.337205 -0.000000
0.417786 0.168792 0.583505 -0.209312 -0.211154 0.954779
0.323251 0.312290 0.457582 -0.948896 0.000000 0.315590
0.472365 0.081956 0.566065 -0.261114 -0.216298 0.940763
0.417786 0.035146 0.438420 -0.692829 -0.650075 0.312074
0.401207 0.017425 0.282639 -0.727000 -0.686638 0.000000
0.566649 0.194267 0.450525 0.264026 0.244242 0.933079
0.677063 0.312290 0.465114 -0.000000 0.000000 1.000000
0.526302 0.312290 0.457500 0.425499 0.000000 0.904959
0.787477 0.194267 0.450525 -0.261109 0.241687 0.934564
0.677063 0.151140 0.457500 0.000000 0.415228 0.909718
0.401207 0.312290 0.602744 -0.155107 0.000000 0.987898
0.827824 0.312290 0.457500 -0.425499 0.000000 0.904959
0.811310 0.035146 0.583505 0.214638 -0.197020 0.956616
0.677063 0.017425 0.602744 0.000000 -0.162804 0.986658
0.542816 0.035146 0.583505 -0.237765 -0.199344 0.950647
0.820138 -0.040343 0.448664 0.362163 -0.877152 0.315345
0.677063 -0.093802 0.282639 0.000000 -1.000000 0.000000
0.827824 -0.065902 0.282639 0.374114 -0.927383 0.000000
0.533988 -0.040343 0.448664 -0.366291 -0.873703 0.320116
0.526302 -0.065902 0.282639 -0.374114 -0.927383 -0.000000
0.677063 -0.065902 0.457582 -0.000000 -0.942916 0.333031
0.952919 0.017425 0.282639 0.727000 -0.686638 0.000000
-1.006963 0.159356 0.116614 -0.897855 -0.323303 -0.298885
-1.030875 0.312290 0.107696 -0.948895 0.000000 -0.315591
-0.903335 0.070426 0.020072 -0.616423 -0.578532 -0.534157
-0.936340 0.168792 -0.018227 -0.716139 -0.304924 -0.627826
-0.952919 0.312290 -0.037465 -0.750394 0.000000 -0.660991
-0.936340 0.035146 0.126858 -0.699732 -0.659686 -0.274208
-0.347163 0.159356 0.116614 0.897855 -0.323303 -0.298885
-0.417786 0.168792 -0.018227 0.716140 -0.304924 -0.627826
-0.323251 0.312290 0.107696 0.948896 -0.000000 -0.315590
-0.450791 0.070426 0.020072 0.616423 -0.578532 -0.534157
-0.417786 0.035146 0.126858 0.699732 -0.659685 -0.274208
-0.533988 0.159356 -0.100178 0.375166 -0.352660 -0.857252
-0.677063 0.312290 -0.158214 -0.000000 -0.000000 -1.000000
-0.526302 0.312290 -0.127925 0.397442 0.000000 -0.917627
-0.820138 0.159356 -0.100178 -0.375166 -0.352660 -0.857252
-0.677063 0.151140 -0.127925 0.000000 -0.378085 -0.925771
-0.401207 0.312290 -0.037465 0.750394 0.000000 -0.660991
-0.827824 0.312290 -0.127925 -0.397442 0.000000 -0.917627
-0.811310 0.035146 -0.018227 -0.332842 -0.690546 -0.642154
-0.677063 0.017425 -0.037465 -0.000000 -0.731272 -0.682086
-0.542816 0.035146 -0.018227 0.332842 -0.690546 -0.642154
-0.820138 -0.040343 0.116614 -0.358211 -0.880233 -0.311248
-0.533988 -0.040343 0.116614 0.358211 -0.880233 -0.311248
-0.677063 -0.065902 0.107696 0.000000 -0.942916 -0.333031
1.006963 0.159356 0.116614 0.897855 -0.323303 -0.298885
0.903335 0.070426 0.020072 0.616423 -0.578532 -0.534157
0.936340 0.035146 0.126858 0.699732 -0.659686 -0.274208
0.936340 0.168792 -0.018227 0.716139 -0.304924 -0.627826
1.030875 0.312290 0.107696 0.948896 0.000000 -0.315591
0.347163 0.159356 0.116614 -0.897855 -0.323303 -0.298885
0.323251 0.312290 0.107696 -0.948896 0.000000 -0.315590
0.417786 0.168792 -0.018227 -0.716140 -0.304924 -0.627826
0.450791 0.070426 0.020072 -0.616423 -0.578532 -0.534157
0.417786 0.035146 0.126858 -0.699732 -0.659685 -0.274208
0.533988 0.159356 -0.100178 -0.375166 -0.352660 -0.857252
0.677063 0.312290 -0.158214 0.000000 -0.000000 -1.000000
0.677063 0.151140 -0.127925 -0.000000 -0.378085 -0.925771
0.820138 0.159356 -0.100178 0.375166 -0.352660 -0.857252
0.542816 0.035146 -0.018227 -0.332842 -0.690546 -0.642154
0.526302 0.312290 -0.127925 -0.397442 0.000000 -0.917627
0.827824 0.312290 -0.127925 0.397442 -0.000000 -0.917627
0.811310 0.035146 -0.018227 0.332842 -0.690546 -0.642154
0.677063 0.017425 -0.037465 0.000000 -0.731272 -0.682086
0.820138 -0.040343 0.116614 0.358211 -0.880233 -0.311248
0.533988 -0.040343 0.116614 -0.358211 -0.880233 -0.311248
0.677063 -0.065902 0.107696 -0.000000 -0.942916 -0.333031
-1.006963 0.465223 0.448664 -0.891651 0.331761 0.308047
-0.892548 0.531093 0.566065 -0.244845 0.230467 0.941773
-0.936340 0.455787 0.583505 -0.200543 0.213424 0.956155
-0.952919 0.312290 0.602744 -0.155107 0.000000 0.987898
-0.936340 0.589433 0.438420 -0.689570 0.653351 0.312451
-1.030875 0.473439 0.282639 -0.941431 0.337205 0.000000
-0.347163 0.465223 0.448664 0.897855 0.323303 0.298885
-0.323251 0.473439 0.282639 0.941431 0.337205 -0.000000
-0.417786 0.455787 0.583505 0.152536 0.234822 0.959995
-0.450791 0.554153 0.545206 0.405060 0.360623 0.840165
-0.417786 0.589433 0.438420 0.699732 0.659685 0.274208
-0.401207 0.607154 0.282639 0.727000 0.686638 0.000000
-0.566649 0.430312 0.450525 -0.246742 -0.226818 0.942163
-0.787477 0.430312 0.450525 0.263519 -0.244635 0.933119
-0.677063 0.473439 0.457500 -0.000000 -0.415228 0.909718
-0.401207 0.312290 0.602744 0.155107 -0.000000 0.987898
-0.811310 0.589433 0.583505 -0.236667 0.207826 0.949103
-0.677063 0.607154 0.602744 -0.000000 0.162804 0.986658
-0.542816 0.589433 0.583505 0.253949 0.151128 0.955338
-0.820138 0.664922 0.448664 -0.368127 0.872244 0.321983
-0.677063 0.718381 0.282639 0.000000 1.000000 -0.000000
-0.827824 0.690481 0.282639 -0.374114 0.927383 -0.000000
-0.533988 0.664922 0.448664 0.358211 0.880233 0.311248
-0.526302 0.690481 0.282639 0.374114 0.927383 0.000000
-0.677063 0.690481 0.457582 0.000000 0.942916 0.333031
-0.952919 0.607154 0.282639 -0.727000 0.686638 0.000000
1.006963 0.465223 0.448664 0.891651 0.331761 0.308047
1.030875 0.473439 0.282639 0.941431 0.337205 -0.000000
0.892548 0.531093 0.566065 0.244846 0.230467 0.941773
0.936340 0.589433 0.438420 0.689570 0.653351 0.312451
0.936340 0.455787 0.583505 0.200543 0.213424 0.956155
0.952919 0.607154 0.282639 0.727000 0.686638 -0.000000
0.347163 0.465223 0.448664 -0.897855 0.323303 0.298885
0.323251 0.473439 0.282639 -0.941431 0.337205 -0.000000
0.417786 0.455787 0.583505 -0.152536 0.234822 0.959995
0.450791 0.554153 0.545206 -0.405060 0.360623 0.840165
0.417786 0.589433 0.438420 -0.699732 0.659685 0.274208
0.401207 0.607154 0.282639 -0.727000 0.686638 0.000000
0.566649 0.430312 0.450525 0.246742 -0.226818 0.942163
0.677063 0.473439 0.457500 0.000000 -0.415228 0.909718
0.787477 0.430312 0.450525 -0.263519 -0.244635 0.933119
0.542816 0.589433 0.583505 -0.253949 0.151128 0.955338
0.811310 0.589433 0.583505 0.236666 0.207826 0.949103
0.677063 0.607154 0.602744 0.000000 0.162804 0.986658
0.677063 0.718381 0.282639 -0.000000 1.000000 0.000000
0.820138 0.664922 0.448664 0.368127 0.872244 0.321983
0.827824 0.690481 0.282639 0.374114 0.927383 0.000000
0.533988 0.664922 0.448664 -0.358211 0.880233 0.311248
0.677063 0.690481 0.457582 -0.000000 0.942916 0.333031
0.526302 0.690481 0.282639 -0.374114 0.927383 0.000000
-1.006963 0.465223 0.116614 -0.897855 0.323303 -0.298885
-0.903335 0.554153 0.020072 -0.616423 0.578532 -0.534157
-0.936340 0.589433 0.126858 -0.699732 0.659685 -0.274208
-0.936340 0.455787 -0.018227 -0.716139 0.304924 -0.627826
-0.347163 0.465223 0.116614 0.897855 0.323303 -0.298885
-0.417786 0.455787 -0.018227 0.716140 0.304924 -0.627826
-0.450791 0.554153 0.020072 0.616423 0.578532 -0.534157
-0.417786 0.589433 0.126858 0.699732 0.659685 -0.274208
-0.533988 0.465223 -0.100178 0.375166 0.352660 -0.857252
-0.677063 0.473439 -0.127925 0.000000 0.378085 -0.925771
-0.820138 0.465223 -0.100178 -0.375166 0.352660 -0.857252
-0.542816 0.589433 -0.018227 0.332842 0.690546 -0.642154
-0.811310 0.589433 -0.018227 -0.332842 0.690546 -0.642154
-0.677063 0.607154 -0.037465 -0.000000 0.731272 -0.682086
-0.820138 0.664922 0.116614 -0.358211 0.880233 -0.311248
-0.533988 0.664922 0.116614 0.358211 0.880233 -0.311248
-0.677063 0.690481 0.107696 0.000000 0.942916 -0.333031
1.006963 0.465223 0.116614 0.897855 0.323303 -0.298885
0.903335 0.554153 0.020072 0.616423 0.578532 -0.534157
0.936340 0.455787 -0.018227 0.716139 0.304924 -0.627826
0.952919 0.312290 -0.037465 0.750394 0.000000 -0.660991
0.936340 0.589433 0.126858 0.699732 0.659685 -0.274208
0.347163 0.465223 0.116614 -0.897855 0.323303 -0.298885
0.417786 0.455787 -0.018227 -0.716140 0.304924 -0.627826
0.450791 0.554153 0.020072 -0.616423 0.578532 -0.534157
0.417786 0.589433 0.126858 -0.699732 0.659685 -0.274208
0.533988 0.465223 -0.100178 -0.375166 0.352660 -0.857252
0.820138 0.465223 -0.100178 0.375166 0.352660 -0.857252
0.677063 0.473439 -0.127925 -0.000000 0.378085 -0.925771
0.401207 0.312290 -0.037465 -0.750394 0.000000 -0.660991
0.811310 0.589433 -0.018227 0.332842 0.690546 -0.642154
0.677063 0.607154 -0.037465 0.000000 0.731272 -0.682086
0.542816 0.589433 -0.018227 -0.332842 0.690546 -0.642154
0.820138 0.664922 0.116614 0.358211 0.880233 -0.311248
0.533988 0.664922 0.116614 -0.358211 0.880233 -0.311248
0.677063 0.690481 0.107696 -0.000000 0.942916 -0.333031
0.263569 -0.065376 -0.342737 0.390720 -0.902481 -0.181290
0.296537 -0.082745 0.047468 0.341835 -0.939755 0.002970
-0.000000 -0.117167 0.047468 0.000000 -0.999971 0.007671
-0.263569 -0.065376 -0.342737 -0.390720 -0.902481 -0.181290
0.000000 -0.098924 -0.363698 -0.000000 -0.990853 -0.134948
0.292332 -0.054977 0.483961 0.408615 -0.848612 0.335994
-0.000000 -0.086711 0.495069 -0.000000 -0.943969 0.330035
-0.292332 -0.054977 0.483961 -0.408615 -0.848612 0.335994
0.375000 0.114723 -0.500000 0.790455 -0.455383 -0.409642
0.461408 0.068979 -0.296650 0.761007 -0.582693 -0.285196
0.222487 0.001933 -0.659653 0.491886 -0.779791 -0.387265
-0.222487 0.001933 -0.659653 -0.491886 -0.779791 -0.387265
0.000000 -0.027077 -0.704868 0.000000 -0.902673 -0.430327
-0.375000 0.114723 -0.500000 -0.790456 -0.455383 -0.409642
-0.461408 0.068979 -0.296650 -0.761007 -0.582693 -0.285196
-0.296537 -0.082745 0.047468 -0.341835 -0.939755 0.002970
-0.515115 0.096253 0.296650 -0.783167 -0.587898 0.202546
-0.276194 0.064997 0.654840 -0.401888 -0.417432 0.815007
-0.458333 0.170279 0.500000 -0.758204 -0.281726 0.588011
0.000000 0.039590 0.682143 0.000000 -0.483754 0.875204
0.276194 0.064997 0.654840 0.401888 -0.417432 0.815007
0.515115 0.096253 0.296650 0.783167 -0.587898 0.202546
0.458333 0.170279 0.500000 0.758204 -0.281726 0.588011
0.525077 0.051966 0.000000 0.762926 -0.644497 -0.050671
0.263569 0.986436 0.741221 0.422716 0.104636 0.900201
-0.000000 1.003419 0.819573 0.000000 0.073113 0.997324
-0.000000 0.670279 0.724550 -0.000000 -0.189222 0.981934
0.292906 0.459508 0.648094 0.431391 -0.058700 0.900253
0.296537 0.670279 0.677803 0.348441 -0.179140 0.920053
-0.263569 0.986436 0.741221 -0.422716 0.104636 0.900201
-0.296537 0.670279 0.677803 -0.348441 -0.179140 0.920053
-0.292906 0.459508 0.648093 -0.431391 -0.058700 0.900253
0.375000 1.170279 0.555556 0.710000 0.508161 0.487516
0.222487 1.243212 0.646809 0.432725 0.569148 0.699156
0.461408 0.966929 0.601300 0.762719 0.227568 0.605370
0.382514 0.577088 0.574026 0.660761 -0.234411 0.713055
0.485473 0.737820 0.618313 0.665191 -0.135778 0.734225
0.000000 0.448185 0.687931 -0.000000 -0.079462 0.996838
-0.382514 0.577088 0.574026 -0.660761 -0.234411 0.713055
-0.485473 0.737820 0.618313 -0.665191 -0.135778 0.734225
-0.461408 0.966929 0.601300 -0.762719 0.227568 0.605370
-0.222487 1.243212 0.646809 -0.432725 0.569148 0.699156
-0.375000 1.170279 0.555556 -0.710000 0.508161 0.487516
-0.000000 1.279847 0.696502 0.000000 0.610039 0.792372
-0.631993 0.668945 0.343091 -0.956417 0.055953 0.286594
-0.543502 0.985450 0.349369 -0.923366 0.362103 0.127579
-0.513768 0.995527 0.038500 -0.864570 0.439617 -0.243424
-0.627034 0.352878 0.317401 -0.929773 -0.163333 0.329917
-0.621142 0.659605 0.010674 -0.966703 0.180950 -0.180949
-0.386315 0.952889 -0.282610 -0.685830 0.514606 -0.514605
-0.631993 0.327188 0.001334 -0.979090 -0.166673 -0.116633
-0.513768 0.631779 -0.325248 -0.864142 0.240610 -0.442002
-0.392229 1.242730 0.372809 -0.773027 0.623951 0.114516
-0.525077 0.051966 0.000000 -0.762926 -0.644497 -0.050671
-0.543502 0.320910 -0.315171 -0.920080 -0.113979 -0.374783
-0.392229 0.297471 -0.572451 -0.810110 -0.060100 -0.583190
-0.343171 0.565084 -0.605710 -0.673587 0.265212 -0.689887
-0.199146 0.843472 -0.553723 -0.388695 0.554001 -0.736206
-0.199146 1.224002 -0.173193 -0.388695 0.736206 -0.554001
-0.000000 1.077686 -0.407408 -0.000000 0.707107 -0.707107
-0.343171 1.275989 0.105195 -0.670330 0.692170 -0.267503
0.000000 1.392016 0.002868 0.000000 0.875201 -0.483760
-0.149486 1.446189 0.218622 -0.393240 0.900763 -0.184357
0.000000 1.489145 0.318480 -0.000000 0.999826 0.018664
0.204521 1.397964 0.450337 0.488209 0.817551 0.305388
0.149486 1.446189 0.218622 0.393240 0.900763 -0.184357
-0.204521 1.397964 0.450337 -0.488209 0.817551 0.305388
-0.000000 1.447516 0.500781 -0.000000 0.886318 0.463076
0.199146 1.224002 -0.173193 0.388695 0.736206 -0.554001
0.343171 1.275989 0.105195 0.670330 0.692170 -0.267503
0.392229 1.242729 0.372808 0.773028 0.623951 0.114516
0.386315 0.952889 -0.282610 0.685830 0.514606 -0.514605
0.513768 0.995527 0.038500 0.864570 0.439617 -0.243424
0.621142 0.659605 0.010674 0.966703 0.180950 -0.180950
0.513768 0.631779 -0.325248 0.864142 0.240610 -0.442002
0.631993 0.327188 0.001334 0.979090 -0.166673 -0.116633
0.543502 0.985449 0.349369 0.923366 0.362104 0.127579
0.631993 0.668945 0.343091 0.956417 0.055953 0.286594
0.627034 0.352878 0.317401 0.929773 -0.163333 0.329917
0.199146 0.843472 -0.553723 0.388695 0.554001 -0.736206
0.343171 0.565084 -0.605710 0.673587 0.265212 -0.689887
0.543502 0.320910 -0.315171 0.920080 -0.113979 -0.374783
0.392229 0.297471 -0.572451 0.810109 -0.060100 -0.583190
-0.000000 0.667411 -0.721737 -0.000000 0.483760 -0.875201
0.149486 0.451657 -0.775910 0.388402 0.240102 -0.889660
-0.000000 0.351799 -0.818866 -0.000000 0.126640 -0.991949
-0.204521 0.084885 -0.785391 -0.501944 -0.359827 -0.786496
-0.149486 0.451657 -0.775910 -0.388402 0.240102 -0.889660
0.204521 0.084885 -0.785391 0.501945 -0.359827 -0.786496
0.000000 0.068513 -0.825126 0.000000 -0.422305 -0.906454
3 0 1 2
3 3 0 4
3 5 6 0
3 4 2 7
3 8 9 10
3 11 12 9
3 9 13 14
3 10 14 15
3 16 17 18
3 17 19 18
3 13 16 20
3 12 21 16
3 22 5 19
3 19 3 23
3 18 23 24
3 20 18 24
3 25 26 27
3 25 28 29
3 30 14 28
3 28 13 20
3 29 20 24
3 29 23 26
3 26 3 4
3 27 4 7
3 31 32 33
3 34 31 35
3 35 33 36
3 37 38 31
3 39 40 41
3 42 43 39
3 44 39 45
3 45 41 46
3 47 48 49
3 50 48 51
3 44 47 42
3 42 49 52
3 35 53 50
3 34 50 54
3 54 51 55
3 56 51 47
3 57 58 59
3 58 60 61
3 61 45 46
3 60 44 45
3 62 56 60
3 54 62 57
3 34 57 37
3 37 59 63
3 64 1 65
3 66 64 67
3 67 65 68
3 69 2 64
3 70 8 10
3 71 72 70
3 73 70 74
3 74 10 15
3 75 76 77
3 78 76 79
3 73 75 71
3 71 77 80
3 67 81 78
3 66 78 82
3 82 79 83
3 84 79 75
3 85 25 27
3 25 86 30
3 30 74 15
3 86 73 74
3 87 84 86
3 82 87 85
3 66 85 69
3 69 27 7
3 88 32 38
3 89 88 90
3 91 92 88
3 90 38 63
3 40 93 41
3 94 95 93
3 93 96 97
3 41 97 46
3 98 99 100
3 99 101 100
3 96 98 102
3 95 103 98
3 104 91 101
3 101 89 105
3 100 105 106
3 102 100 106
3 58 107 59
3 58 108 109
3 61 97 108
3 108 96 102
3 109 102 106
3 109 105 107
3 107 89 90
3 59 90 63
3 110 1 6
3 111 110 112
3 112 6 113
3 114 115 110
3 116 8 117
3 118 11 116
3 119 116 120
3 120 117 121
3 122 17 21
3 123 17 124
3 119 122 118
3 118 21 125
3 112 22 123
3 111 123 126
3 126 124 127
3 128 124 122
3 129 130 131
3 130 132 133
3 133 120 121
3 132 119 120
3 134 128 132
3 126 134 129
3 111 129 114
3 114 131 135
3 136 32 137
3 138 136 139
3 140 33 136
3 139 137 141
3 40 142 143
3 43 144 142
3 142 145 146
3 143 146 147
3 148 48 149
3 48 150 149
3 145 148 151
3 144 49 148
3 53 140 150
3 150 138 152
3 149 152 153
3 151 149 153
3 154 155 156
3 154 157 158
3 159 146 157
3 157 145 151
3 158 151 153
3 158 152 155
3 155 138 139
3 156 139 141
3 160 1 115
3 161 160 162
3 163 65 160
3 162 115 135
3 8 164 117
3 72 165 164
3 164 166 167
3 117 167 121
3 168 76 169
3 76 170 169
3 166 168 171
3 165 77 168
3 81 163 170
3 170 161 172
3 169 172 173
3 171 169 173
3 130 174 131
3 130 175 176
3 133 167 175
3 175 166 171
3 176 171 173
3 176 172 174
3 174 161 162
3 131 162 135
3 177 32 92
3 178 177 179
3 179 92 180
3 181 137 177
3 182 40 143
3 183 94 182
3 184 182 185
3 185 143 147
3 186 99 103
3 187 99 188
3 184 186 183
3 183 103 189
3 179 104 187
3 178 187 190
3 190 188 191
3 192 188 186
3 193 154 156
3 154 194 159
3 159 185 147
3 194 184 185
3 195 192 194
3 190 195 193
3 178 193 181
3 181 156 141
3 196 197 198
3 199 200 198
3 198 197 201
3 198 202 203
3 204 205 196
3 206 196 200
3 207 208 200
3 209 207 199
3 210 199 211
3 211 203 212
3 203 213 214
3 202 215 213
3 202 201 216
3 201 217 218
3 197 219 217
3 205 219 197
3 220 221 222
3 223 224 222
3 222 221 225
3 222 226 227
3 228 229 220
3 230 220 224
3 231 232 224
3 218 231 223
3 216 223 233
3 233 227 213
3 227 234 214
3 226 235 234
3 226 225 236
3 225 237 238
3 221 239 237
3 229 239 221
3 240 241 242
3 243 240 244
3 244 242 245
3 246 244 247
3 238 248 241
3 235 236 241
3 234 235 240
3 214 234 243
3 212 243 246
3 249 246 250
3 250 251 209
3 250 247 252
3 247 245 253
3 245 254 255
3 242 256 254
3 248 256 242
3 257 258 259
3 260 261 259
3 262 263 259
3 264 255 254
3 265 264 257
3 257 254 256
3 228 266 260
3 239 229 260
3 266 265 261
3 238 237 262
3 248 262 258
3 262 237 239
3 267 268 269
3 270 269 271
3 268 272 273
3 269 273 274
3 255 264 267
3 275 267 270
3 276 270 277
3 204 278 277
3 277 271 219
3 271 274 217
3 274 231 218
3 273 232 231
3 272 230 232
3 272 266 228
3 268 265 266
3 264 265 268
3 279 280 281
3 282 283 281
3 284 285 281
3 253 255 275
3 252 253 279
3 279 275 276
3 209 251 282
3 208 207 282
3 251 252 283
3 204 206 284
3 278 284 280
3 284 206 208
3 0 6 1
3 3 5 0
3 5 113 6
3 4 0 2
3 8 11 9
3 11 125 12
3 9 12 13
3 10 9 14
3 16 21 17
3 17 22 19
3 13 12 16
3 12 125 21
3 22 113 5
3 19 5 3
3 18 19 23
3 20 16 18
3 25 29 26
3 25 30 28
3 30 15 14
3 28 14 13
3 29 28 20
3 29 24 23
3 26 23 3
3 27 26 4
3 31 38 32
3 34 37 31
3 35 31 33
3 37 63 38
3 39 43 40
3 42 52 43
3 44 42 39
3 45 39 41
3 47 51 48
3 50 53 48
3 44 56 47
3 42 47 49
3 35 36 53
3 34 35 50
3 54 50 51
3 56 55 51
3 57 62 58
3 58 62 60
3 61 60 45
3 60 56 44
3 62 55 56
3 54 55 62
3 34 54 57
3 37 57 59
3 64 2 1
3 66 69 64
3 67 64 65
3 69 7 2
3 70 72 8
3 71 80 72
3 73 71 70
3 74 70 10
3 75 79 76
3 78 81 76
3 73 84 75
3 71 75 77
3 67 68 81
3 66 67 78
3 82 78 79
3 84 83 79
3 85 87 25
3 25 87 86
3 30 86 74
3 86 84 73
3 87 83 84
3 82 83 87
3 66 82 85
3 69 85 27
3 88 92 32
3 89 91 88
3 91 180 92
3 90 88 38
3 40 94 93
3 94 189 95
3 93 95 96
3 41 93 97
3 98 103 99
3 99 104 101
3 96 95 98
3 95 189 103
3 104 180 91
3 101 91 89
3 100 101 105
3 102 98 100
3 58 109 107
3 58 61 108
3 61 46 97
3 108 97 96
3 109 108 102
3 109 106 105
3 107 105 89
3 59 107 90
3 110 115 1
3 111 114 110
3 112 110 6
3 114 135 115
3 116 11 8
3 118 125 11
3 119 118 116
3 120 116 117
3 122 124 17
3 123 22 17
3 119 128 122
3 118 122 21
3 112 113 22
3 111 112 123
3 126 123 124
3 128 127 124
3 129 134 130
3 130 134 132
3 133 132 120
3 132 128 119
3 134 127 128
3 126 127 134
3 111 126 129
3 114 129 131
3 136 33 32
3 138 140 136
3 140 36 33
3 139 136 137
3 40 43 142
3 43 52 144
3 142 144 145
3 143 142 146
3 148 49 48
3 48 53 150
3 145 144 148
3 144 52 49
3 53 36 140
3 150 140 138
3 149 150 152
3 151 148 149
3 154 158 155
3 154 159 157
3 159 147 146
3 157 146 145
3 158 157 151
3 158 153 152
3 155 152 138
3 156 155 139
3 160 65 1
3 161 163 160
3 163 68 65
3 162 160 115
3 8 72 164
3 72 80 165
3 164 165 166
3 117 164 167
3 168 77 76
3 76 81 170
3 166 165 168
3 165 80 77
3 81 68 163
3 170 163 161
3 169 170 172
3 171 168 169
3 130 176 174
3 130 133 175
3 133 121 167
3 175 167 166
3 176 175 171
3 176 173 172
3 174 172 161
3 131 174 162
3 177 137 32
3 178 181 177
3 179 177 92
3 181 141 137
3 182 94 40
3 183 189 94
3 184 183 182
3 185 182 143
3 186 188 99
3 187 104 99
3 184 192 186
3 183 186 103
3 179 180 104
3 178 179 187
3 190 187 188
3 192 191 188
3 193 195 154
3 154 195 194
3 159 194 185
3 194 192 184
3 195 191 192
3 190 191 195
3 178 190 193
3 181 193 156
3 196 198 200
3 199 198 211
3 198 201 202
3 198 203 211
3 204 196 206
3 206 200 208
3 207 200 199
3 209 199 210
3 210 211 249
3 211 212 249
3 203 214 212
3 202 213 203
3 202 216 215
3 201 218 216
3 197 217 201
3 205 197 196
3 220 222 224
3 223 222 233
3 222 225 226
3 222 227 233
3 228 220 230
3 230 224 232
3 231 224 223
3 218 223 216
3 216 233 215
3 233 213 215
3 227 214 213
3 226 234 227
3 226 236 235
3 225 238 236
3 221 237 225
3 229 221 220
3 240 242 244
3 243 244 246
3 244 245 247
3 246 247 250
3 238 241 236
3 235 241 240
3 234 240 243
3 214 243 212
3 212 246 249
3 249 250 210
3 250 209 210
3 250 252 251
3 247 253 252
3 245 255 253
3 242 254 245
3 248 242 241
3 257 259 261
3 260 259 263
3 262 259 258
3 264 254 257
3 265 257 261
3 257 256 258
3 228 260 229
3 239 260 263
3 266 261 260
3 238 262 248
3 248 258 256
3 262 239 263
3 267 269 270
3 270 271 277
3 268 273 269
3 269 274 271
3 255 267 275
3 275 270 276
3 276 277 278
3 204 277 205
3 277 219 205
3 271 217 219
3 274 218 217
3 273 231 274
3 272 232 273
3 272 228 230
3 268 266 272
3 264 268 267
3 279 281 283
3 282 281 285
3 284 281 280
3 253 275 279
3 252 279 283
3 279 276 280
3 209 282 207
3 208 282 285
3 251 283 282
3 204 284 278
3 278 280 276
3 284 208 285
