ply
format ascii 1.0
comment Created by Blender 3.3.0 - www.blender.org
element vertex 181
property float x
property float y
property float z
property float nx
property float ny
property float nz
property float s
property float t
element face 270
property list uchar uint vertex_indices
end_header
-0.227894 0.205879 -0.013583 -0.932775 0.350398 0.084564 0.554937 0.394999
-0.131209 0.290010 -0.131564 -0.383749 0.914762 -0.126278 0.483418 0.431639
-0.175828 0.246716 -0.248061 -0.727548 0.663966 -0.172695 0.434094 0.393979
-0.163630 0.196603 0.165743 -0.695784 0.281523 0.660779 0.640527 0.405059
-0.178391 0.275317 0.010406 -0.675943 0.733058 0.075678 0.561872 0.425461
-0.129412 0.264620 0.148161 -0.556644 0.600054 0.574528 0.635441 0.432759
-0.130891 0.297568 0.033865 -0.535987 0.842293 0.057102 0.573968 0.445286
-0.095194 0.301432 -0.068991 -0.246131 0.957440 -0.150757 0.512093 0.453973
0.135554 -0.022624 0.148422 0.518569 -0.631631 0.576305 0.659361 0.329386
0.000000 0.083859 0.246878 0.000000 -0.136897 0.990585 0.750644 0.373718
0.000000 -0.035145 0.183621 0.000000 -0.710057 0.704145 0.731275 0.311649
0.170860 0.078425 0.177352 0.706712 -0.139405 0.693632 0.652523 0.365805
0.000000 0.194912 0.230217 0.000000 0.273416 0.961896 0.732803 0.426402
0.000000 0.194912 0.230217 0.000000 0.273416 0.961896 0.734475 0.428066
-0.170860 0.078425 0.177352 -0.706711 -0.139405 0.693632 0.654196 0.367470
0.000000 0.083859 0.246878 0.000000 -0.136897 0.990585 0.752317 0.375383
-0.135554 -0.022624 0.148422 -0.518569 -0.631631 0.576306 0.661034 0.331051
0.000000 -0.035145 0.183621 0.000000 -0.710057 0.704145 0.732948 0.313314
-0.240871 0.062645 -0.014767 -0.974699 -0.186561 0.123115 0.569798 0.349154
-0.169892 -0.073553 -0.011392 -0.633119 -0.759883 0.147439 0.593598 0.301631
-0.218211 0.082046 -0.251779 -0.959202 -0.103503 -0.263095 0.463339 0.334025
-0.155884 -0.065194 -0.249003 -0.629137 -0.715483 -0.303760 0.484907 0.279122
-0.000000 -0.119423 -0.247774 -0.000000 -0.953244 -0.302202 0.494501 0.207507
-0.000000 -0.119423 -0.247774 -0.000000 -0.953244 -0.302202 0.492828 0.205842
0.169892 -0.073553 -0.011392 0.633119 -0.759883 0.147438 0.591926 0.299967
-0.000000 -0.122556 -0.004725 0.000000 -0.981969 0.189044 0.644014 0.238948
-0.000000 -0.122556 -0.004725 0.000000 -0.981969 0.189044 0.645687 0.240612
0.155883 -0.065194 -0.249003 0.629137 -0.715483 -0.303761 0.483233 0.277458
0.240871 0.062645 -0.014767 0.974699 -0.186561 0.123115 0.568125 0.347489
0.218211 0.082046 -0.251779 0.959202 -0.103503 -0.263096 0.461666 0.332361
0.227894 0.205879 -0.013583 0.932775 0.350398 0.084563 0.553264 0.393335
0.163630 0.196603 0.165743 0.695785 0.281523 0.660779 0.638855 0.403394
-0.106631 0.049962 -0.433415 -0.544113 -0.530992 -0.649606 0.371360 0.291325
-0.145695 0.159966 -0.435370 -0.871970 -0.007394 -0.489504 0.357337 0.335552
-0.109155 0.268527 -0.435148 -0.699511 0.688376 -0.191891 0.327112 0.375751
-0.066700 0.242403 -0.540198 -0.645406 0.034924 -0.763041 0.275000 0.346954
-0.060988 0.164198 -0.523847 -0.422235 -0.349023 -0.836601 0.294858 0.317333
-0.000000 0.172930 -0.540198 -0.000001 -0.392811 -0.919619 0.257524 0.305563
-0.060988 0.290798 -0.523847 -0.618634 0.679747 -0.394000 0.270445 0.367643
-0.000000 0.273682 -0.574512 -0.000001 0.222945 -0.974831 0.225170 0.352350
-0.000000 0.273682 -0.574512 -0.000001 0.222945 -0.974831 0.223498 0.350686
0.060987 0.290798 -0.523847 0.618633 0.679747 -0.394000 0.268772 0.365978
0.066700 0.242403 -0.540198 0.645405 0.034924 -0.763042 0.273327 0.345289
-0.000000 0.172930 -0.540198 -0.000001 -0.392811 -0.919619 0.255851 0.303899
0.060987 0.164198 -0.523847 0.422234 -0.349023 -0.836601 0.293185 0.315669
-0.000000 0.012527 -0.434873 -0.000000 -0.716427 -0.697662 0.345923 0.239981
0.106631 0.049962 -0.433415 0.544113 -0.530993 -0.649606 0.369687 0.289661
-0.000000 0.012527 -0.434873 -0.000000 -0.716427 -0.697662 0.347595 0.241645
-0.000000 0.295609 -0.300825 0.000000 0.999815 0.019258 0.355231 0.453100
-0.000000 0.295609 -0.300825 0.000000 0.999815 0.019258 0.353558 0.451436
0.109155 0.268527 -0.435148 0.699511 0.688376 -0.191891 0.325439 0.374086
-0.000000 0.308371 -0.440586 -0.000000 0.997705 0.067715 0.275493 0.412584
-0.000000 0.311875 -0.540198 -0.000000 0.910724 -0.413016 0.230694 0.376044
-0.000000 0.308371 -0.440586 -0.000000 0.997705 0.067715 0.277165 0.414249
0.175828 0.246716 -0.248061 0.727547 0.663966 -0.172695 0.432421 0.392314
0.145695 0.159966 -0.435370 0.871969 -0.007395 -0.489504 0.355664 0.333887
0.000000 0.292254 0.175292 0.000000 0.494821 0.868995 0.692971 0.470995
-0.082450 0.311320 0.134627 -0.693357 -0.102915 0.713207 0.636721 0.460540
-0.095194 0.293703 0.136721 -0.520804 0.649428 0.554082 0.636495 0.451016
0.000000 0.292254 0.175292 0.000000 0.494821 0.868995 0.691299 0.469330
0.082450 0.311320 0.134627 0.693357 -0.102915 0.713207 0.635048 0.458875
0.000000 0.311139 0.168724 0.000000 -0.209230 0.977866 0.684431 0.476855
0.000000 0.311139 0.168724 0.000000 -0.209230 0.977866 0.648942 0.533112
0.095896 0.337400 0.151221 0.538270 -0.679038 0.499172 0.701843 0.621362
0.000000 0.337400 0.191014 0.000000 -0.690410 0.723418 0.678513 0.542378
-0.095896 0.337400 0.151221 -0.538270 -0.679038 0.499172 0.699023 0.621218
-0.082450 0.311320 0.134627 -0.693357 -0.102915 0.713207 0.697186 0.602944
0.178391 0.275317 0.010406 0.675943 0.733058 0.075678 0.560199 0.423797
0.129412 0.264620 0.148161 0.556645 0.600054 0.574527 0.633769 0.431095
0.131209 0.290010 -0.131564 0.383749 0.914762 -0.126278 0.481746 0.429975
0.095194 0.301432 -0.068991 0.246131 0.957440 -0.150757 0.510420 0.452309
0.130892 0.297568 0.033865 0.535988 0.842292 0.057101 0.572296 0.443621
0.095194 0.293703 0.136721 0.520804 0.649427 0.554082 0.634822 0.449352
-0.000000 0.298005 -0.182556 0.000000 0.994798 -0.101862 0.423675 0.475578
-0.000000 0.298005 -0.182556 0.000000 0.994798 -0.101862 0.425348 0.477243
-0.000000 0.302881 -0.107562 0.000000 0.982535 -0.186076 0.471079 0.489432
-0.000000 0.302881 -0.107562 0.000000 0.982535 -0.186076 0.469405 0.487767
0.000000 0.260967 0.199223 0.000000 0.510507 0.859874 0.706701 0.455800
0.000000 0.260967 0.199223 0.000000 0.510507 0.859874 0.708374 0.457465
-0.000000 0.337400 -0.100802 -0.000000 -0.678003 -0.735059 0.569165 0.560305
0.130257 0.387843 -0.099032 0.605575 -0.562028 -0.563386 0.597721 0.625959
0.095896 0.337400 -0.061009 0.546458 -0.670428 -0.501906 0.609611 0.594139
-0.000000 0.337400 -0.100802 -0.000000 -0.678003 -0.735059 0.566470 0.562753
-0.130257 0.387843 -0.099032 -0.605575 -0.562028 -0.563386 0.595573 0.627536
-0.000000 0.387843 -0.153084 -0.000000 -0.571669 -0.820485 0.540274 0.595049
-0.157057 0.469952 -0.128689 -0.718380 -0.150685 -0.679135 0.585941 0.663515
-0.000000 0.469952 -0.193862 -0.000000 -0.152942 -0.988235 0.518848 0.646210
-0.000000 0.387843 -0.153084 -0.000000 -0.571669 -0.820485 0.542459 0.592343
0.157057 0.469952 -0.128689 0.718379 -0.150685 -0.679136 0.587635 0.661984
-0.000000 0.312467 -0.081322 -0.000000 0.342878 -0.939380 0.485808 0.491998
0.082450 0.312286 -0.047225 0.736401 0.296640 -0.608045 0.521967 0.460719
-0.000000 0.312467 -0.081322 -0.000000 0.342878 -0.939380 0.487481 0.493662
-0.000000 0.312467 -0.081322 -0.000000 0.342878 -0.939380 0.577681 0.550099
-0.095896 0.337400 -0.061009 -0.546458 -0.670428 -0.501906 0.607045 0.595707
-0.000000 0.312467 -0.081322 -0.000000 0.342878 -0.939380 0.580580 0.547767
0.082450 0.312286 -0.047225 0.736401 0.296640 -0.608045 0.616043 0.578692
0.113368 0.311803 0.043701 0.990700 0.123928 0.056165 0.578194 0.452881
0.131857 0.337400 0.045106 0.766222 -0.642573 0.001895 0.654652 0.612445
0.113368 0.311803 0.043701 0.990700 0.123928 0.056165 0.657169 0.595942
0.082450 0.311320 0.134627 0.693357 -0.102915 0.713207 0.700197 0.602950
-0.082450 0.312286 -0.047225 -0.736401 0.296640 -0.608044 0.523640 0.462384
-0.113368 0.311803 0.043701 -0.990700 0.123931 0.056166 0.579868 0.454545
-0.131856 0.337400 0.045106 -0.766222 -0.642573 0.001896 0.652016 0.613146
-0.113368 0.311803 0.043701 -0.990700 0.123931 0.056166 0.654338 0.596700
-0.082450 0.312286 -0.047225 -0.736401 0.296640 -0.608044 0.613269 0.580244
-0.147883 0.576320 0.208749 -0.679670 0.364043 0.636806 0.680958 0.738620
-0.094612 0.470021 0.243211 -0.931344 -0.252804 0.262085 0.720297 0.710654
-0.047762 0.523485 0.259646 -0.470272 0.584879 0.660879 0.698147 0.756569
0.147883 0.576320 0.208749 0.679769 0.364108 0.636663 0.682375 0.739141
0.000000 0.577794 0.269543 -0.000357 0.454472 0.890761 0.698823 0.781522
0.048017 0.523406 0.259686 0.470403 0.585521 0.660216 0.698978 0.757273
0.108467 0.650128 0.165132 0.459550 0.782778 0.419610 0.662555 0.771916
0.000000 0.665082 0.187999 0.000000 0.858883 0.512172 0.669421 0.798314
0.000000 0.577794 0.269543 -0.000357 0.454472 0.890761 0.698230 0.780600
-0.108467 0.650128 0.165132 -0.459549 0.782778 0.419611 0.661616 0.771531
0.179104 0.387843 0.045106 0.842289 -0.539027 -0.000000 0.648695 0.643032
0.130257 0.387843 0.189244 0.605372 -0.560184 0.565437 0.702475 0.658036
0.215954 0.469952 0.045106 0.989757 -0.142764 -0.000000 0.641475 0.677806
0.157057 0.469952 0.218900 0.711211 -0.150611 0.686655 0.696785 0.698513
-0.179104 0.387843 0.045106 -0.842289 -0.539027 0.000000 0.646429 0.643651
-0.130257 0.387843 0.189244 -0.605372 -0.560183 0.565438 0.700052 0.657662
-0.215954 0.469952 0.045106 -0.989757 -0.142764 0.000000 0.639633 0.678339
0.000000 0.387843 0.243296 0.000001 -0.583137 0.812374 0.693142 0.564993
0.015007 0.422251 0.254629 0.354722 -0.802899 0.479088 0.694596 0.596932
0.094610 0.470021 0.243212 0.931221 -0.253503 0.261847 0.718919 0.713118
-0.015007 0.422251 0.254629 -0.354722 -0.802900 0.479086 0.689419 0.593450
0.108467 0.650128 -0.074920 0.459549 0.782778 -0.419610 0.583492 0.741396
0.000000 0.696465 0.045106 0.000000 1.000000 0.000000 0.604845 0.824834
0.129132 0.665082 0.045106 0.538667 0.842519 0.000000 0.622213 0.758053
-0.108467 0.650128 -0.074920 -0.459550 0.782778 -0.419610 0.582692 0.742522
0.000000 0.696465 0.045106 0.000000 1.000000 0.000000 0.604830 0.825102
-0.000000 0.665082 -0.097787 -0.000000 0.858882 -0.512173 0.545775 0.774553
0.000000 0.665082 0.187999 0.000000 0.858883 0.512172 0.669188 0.797786
-0.000000 0.469952 -0.193862 -0.000000 -0.152942 -0.988235 0.520342 0.643438
0.147883 0.576320 -0.118537 0.678306 0.364780 -0.637837 0.582583 0.702856
-0.147883 0.576320 -0.118537 -0.678307 0.364780 -0.637837 0.581367 0.704228
-0.000000 0.577794 -0.179331 -0.000000 0.392166 -0.919895 0.519094 0.711882
-0.000000 0.577794 -0.179331 -0.000000 0.392166 -0.919895 0.519863 0.709497
0.202822 0.577794 0.045106 0.928896 0.370340 -0.000000 0.632338 0.717088
-0.202822 0.577794 0.045106 -0.928896 0.370340 0.000000 0.630980 0.717539
-0.129132 0.665082 0.045106 -0.538667 0.842519 0.000001 0.621363 0.758429
-0.062072 0.434212 0.406515 -0.558729 -0.791051 0.249118 0.758597 0.633217
-0.086912 0.464806 0.346813 -0.963372 0.045694 0.264248 0.755226 0.634142
-0.072406 0.433489 0.346813 -0.597090 -0.791955 0.127633 0.756214 0.631579
-0.056910 0.483672 0.411157 -0.493863 0.816379 0.299373 0.758620 0.635221
-0.068257 0.460089 0.440123 -0.732078 0.013957 0.681077 0.759002 0.634248
-0.091064 0.503760 0.269314 -0.642106 0.749892 -0.159255 0.747961 0.638309
-0.115857 0.469523 0.252331 -0.889553 0.034654 -0.455516 0.747466 0.632330
-0.095023 0.433590 0.269314 -0.577545 -0.780102 -0.240586 0.750244 0.628299
-0.094612 0.470021 0.243211 -0.931344 -0.252804 0.262085 0.742214 0.630464
0.091063 0.503760 0.269313 0.642402 0.749670 -0.159108 0.772054 0.638706
0.094610 0.470021 0.243212 0.931221 -0.253503 0.261847 0.777954 0.631038
0.048017 0.523406 0.259686 0.470403 0.585521 0.660216 0.773596 0.651363
0.095023 0.433590 0.269313 0.577545 -0.780099 -0.240598 0.769975 0.628618
0.015007 0.422251 0.254629 0.354722 -0.802899 0.479088 0.763525 0.609704
0.086912 0.464806 0.346813 0.963372 0.045695 0.264248 0.764870 0.634301
0.072406 0.433489 0.346813 0.597090 -0.791955 0.127633 0.763936 0.631705
0.115856 0.469523 0.252331 0.889540 0.034655 -0.455541 0.772669 0.632738
0.056910 0.483672 0.411157 0.493864 0.816379 0.299373 0.761452 0.635268
0.068257 0.460089 0.440123 0.732079 0.013956 0.681076 0.761091 0.634283
0.062072 0.434212 0.406515 0.558729 -0.791051 0.249117 0.761518 0.633265
-0.000000 0.429224 0.436654 0.000000 -0.888467 0.458941 0.760056 0.633341
-0.000000 0.488409 0.441296 0.000001 0.852360 0.522955 0.760037 0.635183
-0.000000 0.458310 0.468591 0.000001 -0.049768 0.998761 0.760046 0.634278
-0.015007 0.422251 0.254629 -0.354722 -0.802900 0.479086 0.757089 0.609600
-0.000000 0.417685 0.346813 0.000000 -0.999312 0.037086 0.760100 0.629297
0.069389 0.495845 0.346813 0.563633 0.779784 0.272499 0.764355 0.637235
-0.069389 0.495845 0.346813 -0.563636 0.779788 0.272480 0.755677 0.637091
-0.000000 0.508990 0.346813 0.000001 0.965989 0.258583 0.759980 0.640427
-0.000000 0.527255 0.288162 -0.197685 0.754599 0.625701 0.759694 0.656146
-0.000000 0.311875 -0.540198 -0.000000 0.910724 -0.413016 0.232366 0.377709
0.000000 0.311139 0.168724 0.000000 -0.209230 0.977866 0.686104 0.478519
-0.000000 0.527255 0.288162 -0.197685 0.754599 0.625701 0.709048 0.768995
-0.157057 0.469952 0.218900 -0.711208 -0.150611 0.686658 0.694838 0.697993
-0.000000 0.527255 0.288162 0.197245 0.754344 0.626147 0.709210 0.769231
-0.000000 0.527255 0.288162 0.197245 0.754344 0.626147 0.709829 0.770027
-0.000000 0.420183 0.262267 -0.000002 -0.930634 0.365952 0.699801 0.591251
-0.000000 0.665082 -0.097787 -0.000000 0.858882 -0.512173 0.546006 0.772986
-0.047762 0.523485 0.259646 -0.470272 0.584879 0.660879 0.746167 0.650987
-0.000000 0.420183 0.262267 -0.000002 -0.930634 0.365952 0.760287 0.611527
-0.000000 0.527255 0.288162 0.197245 0.754344 0.626147 0.759918 0.656150
3 0 1 2
3 3 4 0
3 5 6 4
3 4 7 1
3 8 9 10
3 11 12 9
3 13 14 15
3 15 16 17
3 16 18 19
3 3 18 14
3 0 20 18
3 18 21 19
3 22 19 21
3 23 24 25
3 25 8 10
3 26 16 19
3 27 28 24
3 29 30 28
3 28 31 11
3 28 8 24
3 20 32 21
3 2 33 20
3 34 35 33
3 33 36 32
3 35 37 36
3 38 39 35
3 40 41 42
3 43 42 44
3 27 45 46
3 21 47 22
3 47 36 37
3 45 44 46
3 48 34 2
3 49 50 51
3 51 41 52
3 53 38 34
3 54 55 50
3 29 46 55
3 55 44 42
3 50 42 41
3 56 57 58
3 59 60 61
3 62 63 64
3 62 65 66
3 31 67 68
3 30 69 67
3 67 70 71
3 68 71 72
3 54 73 69
3 2 74 48
3 1 75 74
3 69 76 70
3 13 5 3
3 12 68 77
3 77 72 59
3 78 58 5
3 79 80 81
3 82 83 84
3 84 85 86
3 87 88 80
3 70 89 90
3 7 91 75
3 92 93 82
3 94 81 95
3 72 96 60
3 71 90 96
3 95 97 98
3 99 97 63
3 6 100 7
3 58 101 6
3 66 102 103
3 104 102 93
3 105 106 107
3 108 109 110
3 109 111 112
3 113 114 105
3 63 115 116
3 81 115 97
3 80 117 115
3 116 117 118
3 93 119 83
3 65 119 102
3 120 121 119
3 83 121 85
3 64 120 65
3 64 116 122
3 123 116 124
3 120 122 125
3 126 127 128
3 129 130 131
3 130 114 132
3 127 111 128
3 133 134 88
3 86 135 136
3 136 129 131
3 137 126 134
3 117 108 118
3 117 134 138
3 138 126 128
3 138 111 108
3 121 135 85
3 121 105 139
3 139 114 140
3 139 129 135
3 141 142 143
3 144 142 145
3 142 146 147
3 142 148 143
3 146 149 147
3 150 151 152
3 151 153 154
3 153 155 156
3 150 155 157
3 155 158 159
3 155 160 156
3 159 161 160
3 159 162 163
3 162 145 163
3 161 145 141
3 143 148 164
3 154 156 165
3 165 160 161
3 165 141 143
3 166 150 152
3 167 168 169
3 168 144 162
3 168 158 166
3 0 4 1
3 3 5 4
3 5 58 6
3 4 6 7
3 8 11 9
3 11 31 12
3 13 3 14
3 15 14 16
3 16 14 18
3 3 0 18
3 0 2 20
3 18 20 21
3 22 26 19
3 23 27 24
3 25 24 8
3 26 17 16
3 27 29 28
3 29 54 30
3 28 30 31
3 28 11 8
3 20 33 32
3 2 34 33
3 34 38 35
3 33 35 36
3 35 39 37
3 38 170 39
3 40 52 41
3 43 40 42
3 27 23 45
3 21 32 47
3 47 32 36
3 45 43 44
3 48 53 34
3 49 54 50
3 51 50 41
3 53 170 38
3 54 29 55
3 29 27 46
3 55 46 44
3 50 55 42
3 56 171 57
3 59 72 60
3 62 99 63
3 62 64 65
3 31 30 67
3 30 54 69
3 67 69 70
3 68 67 71
3 54 49 73
3 2 1 74
3 1 7 75
3 69 73 76
3 13 78 5
3 12 31 68
3 77 68 72
3 78 56 58
3 79 87 80
3 82 93 83
3 84 83 85
3 87 133 88
3 70 76 89
3 7 100 91
3 92 104 93
3 94 79 81
3 72 71 96
3 71 70 90
3 95 81 97
3 99 98 97
3 6 101 100
3 58 57 101
3 66 65 102
3 104 103 102
3 107 172 113
3 113 105 107
3 105 173 106
3 124 118 108
3 113 172 174
3 110 124 108
3 109 175 110
3 109 108 111
3 113 132 114
3 63 97 115
3 81 80 115
3 80 88 117
3 116 115 117
3 93 102 119
3 65 120 119
3 120 173 121
3 83 119 121
3 64 122 120
3 64 63 116
3 123 176 122
3 122 116 123
3 116 118 124
3 106 173 120
3 125 106 120
3 122 176 125
3 126 177 127
3 129 140 130
3 130 140 114
3 127 112 111
3 133 137 134
3 86 85 135
3 136 135 129
3 137 177 126
3 117 138 108
3 117 88 134
3 138 134 126
3 138 128 111
3 121 139 135
3 121 173 105
3 139 105 114
3 139 140 129
3 141 145 142
3 144 167 142
3 142 167 146
3 142 147 148
3 164 148 149
3 148 147 149
3 146 178 149
3 150 157 151
3 151 157 153
3 153 157 155
3 150 166 155
3 155 166 158
3 155 159 160
3 159 163 161
3 159 158 162
3 162 144 145
3 161 163 145
3 179 165 164
3 165 143 164
3 154 153 156
3 179 154 165
3 165 156 160
3 165 161 141
3 152 180 166
3 180 168 166
3 178 146 167
3 168 180 169
3 169 178 167
3 168 167 144
3 168 162 158
